PathFileType	4	(X/Y/Z)	./resultDataOpenSim/trcMotMarkerGrf/sub09/qtm-04-01.trc
DataRate	CameraRate	NumFrames	NumMarkers	Units	OrigDataRate	OrigDataStartFrame	OrigNumFrames
250.000000	250.000000	8	24	m	250.000000	64	506
Frame#	Time	L.Toe.Tip			R.Toe.Tip			L.Ankle.Lat			R.Ankle.Lat			L.Ankle.Med			R.Ankle.Med			L.Heel			R.Heel			L.Knee.Lat			R.Knee.Lat			L.Knee.Med			R.Knee.Med			L.Thigh.Upper			R.Thigh.Upper			L.ASIS			R.ASIS			V.Sacral			L.Acromium			R.Acromium			C7			L.Elbow			R.Elbow			L.Wrist.Lat			R.Wrist.Lat
		X1	Y1	Z1	X2	Y2	Z2	X3	Y3	Z3	X4	Y4	Z4	X5	Y5	Z5	X6	Y6	Z6	X7	Y7	Z7	X8	Y8	Z8	X9	Y9	Z9	X10	Y10	Z10	X11	Y11	Z11	X12	Y12	Z12	X13	Y13	Z13	X14	Y14	Z14	X15	Y15	Z15	X16	Y16	Z16	X17	Y17	Z17	X18	Y18	Z18	X19	Y19	Z19	X20	Y20	Z20	X21	Y21	Z21	X22	Y22	Z22	X23	Y23	Z23	X24	Y24	Z24

64	0.252	-1.2693401	0.10454494	-0.039198037	-0.62271219	0.039222741	0.12998734	-1.2971243	0.25854952	-0.070471812	-0.77151748	0.054187761	0.1561846	-1.2732818	0.23899522	0.022524989	-0.7584289	0.091183716	0.064939247	-1.3610939	0.30165273	-0.021179081	-0.83784222	0.031346842	0.10472636	-0.91797894	0.42299586	-0.088415867	-0.70886027	0.50435357	0.21305693	-0.91251822	0.40855512	0.040868031	-0.72723069	0.49164244	0.087622485	-0.92573359	0.8290238	-0.10716289	-0.91209047	0.86401847	0.26399126	-0.83979657	0.91859507	-0.053540686	-0.83364353	0.94831216	0.18558338	-1.0054233	0.9878904	0.067270836	-0.82178806	1.3852943	-0.086796696	-0.86946734	1.3873442	0.23918779	-0.9150254	1.4402547	0.070573217	-0.92292125	1.0257574	-0.16414987	-1.0059505	1.0504059	0.31110035	-0.71029553	0.86080062	-0.13381267	-0.88048219	0.81117563	0.36087389
65	0.256	-1.2541264	0.10598846	-0.03945259	-0.62270408	0.03920713	0.12987537	-1.2833308	0.25958587	-0.069808543	-0.7712891	0.054178466	0.15609174	-1.2593977	0.23990815	0.02315211	-0.75839448	0.091127993	0.064763522	-1.3478432	0.30208771	-0.020403579	-0.83789174	0.031388924	0.10466326	-0.9046248	0.42457241	-0.08762342	-0.70779225	0.50433243	0.21350021	-0.89951298	0.40976676	0.041868759	-0.72454662	0.49141247	0.087530975	-0.91987234	0.83033719	-0.10689102	-0.90549975	0.86572417	0.26442359	-0.83439709	0.92018516	-0.05350328	-0.82861975	0.94956573	0.18542465	-0.9997696	0.98940436	0.067804999	-0.81648383	1.3866711	-0.086813333	-0.86319802	1.3887907	0.23934685	-0.90936333	1.4417499	0.070584516	-0.9176413	1.0271857	-0.16339027	-0.99918156	1.0515425	0.31180733	-0.70696782	0.85973163	-0.13430191	-0.87186773	0.81287147	0.36074768
66	0.26	-1.2386808	0.10716083	-0.03944732	-0.62271647	0.039202654	0.12980202	-1.2694168	0.26032675	-0.069160803	-0.771135	0.054182993	0.15602467	-1.245223	0.2406425	0.023711059	-0.7583925	0.09108308	0.064606797	-1.3345545	0.30225725	-0.019685849	-0.83793697	0.031433614	0.10459385	-0.89154785	0.42633981	-0.086784923	-0.70693854	0.50430017	0.21388772	-0.88677795	0.41121823	0.042860574	-0.72202429	0.49122075	0.087491189	-0.91390454	0.83177863	-0.10658923	-0.89921058	0.86738055	0.26479718	-0.82902468	0.92187936	-0.05342052	-0.82327503	0.95087549	0.18537089	-0.99417153	0.99095227	0.068291328	-0.81124794	1.3881197	-0.086829798	-0.85698433	1.3903097	0.23951104	-0.90375294	1.4433218	0.07041059	-0.9125345	1.0287109	-0.16263626	-0.99244506	1.052745	0.31251561	-0.70376753	0.8587993	-0.13477211	-0.86335958	0.81464842	0.36058445
67	0.264	-1.223115	0.10803141	-0.039149157	-0.62275537	0.039205854	0.12977054	-1.2553894	0.26076922	-0.068521605	-0.77105987	0.054195954	0.15598385	-1.2308656	0.24116007	0.024244894	-0.7583929	0.091059267	0.064503634	-1.3210975	0.30222899	-0.018824718	-0.83798045	0.031475755	0.10451629	-0.87873543	0.42827595	-0.085906858	-0.70569325	0.50418754	0.21407475	-0.87412768	0.41288053	0.043848568	-0.71962098	0.49106804	0.087473874	-0.90781619	0.83332829	-0.10625501	-0.89321924	0.86897516	0.26511889	-0.82369232	0.92365363	-0.053291037	-0.81765959	0.95223562	0.18541972	-0.98861999	0.9925358	0.068741571	-0.80607569	1.3896309	-0.08682905	-0.8508146	1.3918944	0.23967972	-0.89815571	1.4449457	0.070225036	-0.90763099	1.0303235	-0.16188691	-0.98573659	1.0540084	0.3132172	-0.70069881	0.85797193	-0.13524859	-0.8549679	0.81650041	0.36039198
68	0.268	-1.20742	0.1086167	-0.03859844	-0.62282415	0.039214055	0.12977888	-1.2412547	0.26090615	-0.067890108	-0.77107924	0.054230173	0.1559696	-1.2165299	0.24141559	0.024845134	-0.75840096	0.091059597	0.064460966	-1.3073222	0.30205053	-0.017737734	-0.83802459	0.031514428	0.10443314	-0.86604236	0.43038534	-0.084981836	-0.70387625	0.50404228	0.21411601	-0.8613213	0.41472721	0.044847392	-0.71724602	0.4909544	0.087438728	-0.90174793	0.83495421	-0.10591956	-0.88749689	0.87050717	0.26540194	-0.81840563	0.92548765	-0.053121603	-0.81196861	0.95361436	0.18553709	-0.98312218	0.99416154	0.069133404	-0.80095797	1.3911992	-0.086817614	-0.84468775	1.3935408	0.23985153	-0.8925362	1.4465892	0.0702183	-0.90280615	1.03199	-0.16103335	-0.97905774	1.0553283	0.3139083	-0.69776644	0.85722248	-0.1357518	-0.84664128	0.8184411	0.36018867
69	0.272	-1.1914655	0.10897321	-0.037905318	-0.62292294	0.039227582	0.12981968	-1.2270081	0.26073409	-0.067267696	-0.77122596	0.054316649	0.15597959	-1.202238	0.24141136	0.025518699	-0.75844202	0.091079929	0.064463325	-1.2931688	0.30167762	-0.016625836	-0.8380706	0.03155245	0.10434746	-0.85333003	0.4326733	-0.084015112	-0.7016926	0.50391443	0.21416131	-0.84826509	0.41674027	0.045876569	-0.714877	0.4908809	0.087392487	-0.89582802	0.83663668	-0.10560957	-0.8819869	0.87199108	0.26566327	-0.81315247	0.92737723	-0.052910966	-0.80633694	0.95498884	0.18569262	-0.97772162	0.99582782	0.069362769	-0.79588464	1.3928227	-0.086812216	-0.83861137	1.3952439	0.24002682	-0.886891	1.4482349	0.070419364	-0.89780206	1.033671	-0.1599431	-0.97241649	1.0566983	0.31458978	-0.69496757	0.85655128	-0.13628195	-0.83831514	0.82048612	0.35999257
70	0.276	-1.175109	0.10914621	-0.037194338	-0.62304943	0.039248958	0.1298829	-1.2126324	0.26025683	-0.066653076	-0.77149651	0.054471386	0.15600023	-1.1878953	0.24117239	0.02620755	-0.75852589	0.091114736	0.064493187	-1.2787783	0.30097207	-0.015874879	-0.83811871	0.031592955	0.10425789	-0.84058696	0.43512201	-0.083018615	-0.6994507	0.50379347	0.21428981	-0.83503336	0.41891561	0.04693992	-0.71257179	0.49084163	0.087358944	-0.89004188	0.8383857	-0.1053294	-0.8766066	0.87345074	0.26591968	-0.80791156	0.92932313	-0.052657118	-0.80079306	0.95636037	0.18587552	-0.9724738	0.99752434	0.069285732	-0.79084734	1.3944984	-0.086820369	-0.83258373	1.396991	0.24020368	-0.8812403	1.449881	0.070726408	-0.89246359	1.0353573	-0.15867142	-0.9658226	1.0581126	0.31526616	-0.69228465	0.85598125	-0.13682981	-0.82996845	0.8226339	0.35980315
71	0.28	-1.1582699	0.10915702	-0.036575257	-0.62319796	0.03927965	0.12996136	-1.1981124	0.25948454	-0.066045615	-0.77180551	0.054661424	0.15600881	-1.1734312	0.24071159	0.026881111	-0.75863598	0.091159903	0.064539319	-1.264428	0.29977311	-0.01572456	-0.83816836	0.031637061	0.10416144	-0.82795597	0.4376977	-0.081985677	-0.69736451	0.50365257	0.21448722	-0.82179497	0.4212803	0.048013223	-0.71041522	0.49081813	0.087363416	-0.8842446	0.8402264	-0.10504939	-0.87126646	0.87490249	0.26619048	-0.80266516	0.93132038	-0.052368942	-0.79531672	0.95773887	0.18608794	-0.96734411	0.99923803	0.068949135	-0.78583898	1.3962154	-0.08683601	-0.82659292	1.3987682	0.240377	-0.8756024	1.4515308	0.071044212	-0.88693246	1.0370895	-0.15743762	-0.9592832	1.0595665	0.3159439	-0.68970065	0.85553022	-0.13739154	-0.82160676	0.82487175	0.35960783
